<svg width="20" height="20" viewBox="0 0 20 20" fill="none" xmlns="http://www.w3.org/2000/svg">
<g clip-path="url(#clip0_260_4958)">
<path fill-rule="evenodd" clip-rule="evenodd" d="M0.833008 9.16668C0.833008 4.5643 4.56397 0.833344 9.16634 0.833344C13.7687 0.833344 17.4997 4.5643 17.4997 9.16668C17.4997 11.1678 16.7943 13.0041 15.6188 14.4406L19.1663 17.9882L17.9878 19.1667L14.4403 15.6191C13.0038 16.7947 11.1674 17.5 9.16634 17.5C4.56397 17.5 0.833008 13.769 0.833008 9.16668ZM9.16634 2.50001C5.48444 2.50001 2.49967 5.48478 2.49967 9.16668C2.49967 12.8486 5.48444 15.8333 9.16634 15.8333C12.8483 15.8333 15.833 12.8486 15.833 9.16668C15.833 5.48478 12.8483 2.50001 9.16634 2.50001Z" fill="#777777"/>
</g>
<defs>
<clipPath id="clip0_260_4958">
<rect width="20" height="20" fill="white"/>
</clipPath>
</defs>
</svg>
